<?xml version="1.0" encoding="UTF-8"?>
<svg id="PERSONNAGE" xmlns="http://www.w3.org/2000/svg" viewBox="0 0 106.97 45.57">
  <defs>
    <style>
      .cls-1 {
        fill: #e3ddef;
        stroke: #8d77b5;
        stroke-miterlimit: 10;
      }
    </style>
  </defs>
  <g id="Calque_12" data-name="Calque 12">
    <path class="cls-1" d="M6.74,23.48c-2.53-1.76-6.04-.1-6.22,2.97-.13,2.33.47,4.71,2.72,6.38,6.11,4.53,14.25.74,16.38-1.2,2.13-1.94,4.72-3.79,5.37-4.63.6-.77,13.49-3.24,25.87,16.22,1.51,2.37,4.93,2.48,6.56.19,5.02-7.06,14.71-18.6,23.46-17.06.75.13,1.45.48,2.02,1,1.64,1.51,5.63,5.11,7.16,5.68,1.94.73,7.76,4.24,13.21.36,2.09-1.49,2.99-3.93,3.2-6.38.29-3.4-3.65-5.53-6.35-3.44-.64.49-1.28.84-1.86.9-2.39.27-6.57,1.5-12.89-4.23-.56-.51-1.25-.84-1.99-.96-2.28-.39-7.26-.69-11.63,2.82-4.24,3.41-11.26,9.66-15.13,14.21-1.6,1.89-4.54,1.83-6.09-.1-4.01-5.01-10.9-12.75-16.55-14.72-8.55-2.98-9.59-1.93-10.64-1.87s-4.63,4.41-7.83,4.8c-3.2.39-5.79,1.1-8.66-.88-.03-.02-.06-.04-.09-.06Z"/>
  </g>
</svg>